# Blender v2.78 (sub 0) OBJ File: 'CHAHIN_GUMMY_BEAR.blend'
# www.blender.org
mtllib CHAHIN_GUMMY_BEAR.mtl
o Cube.011_Cube.023
v -0.173548 -0.272928 -0.113264
v -0.173548 0.018815 -0.113264
v 0.002555 -0.272928 0.113264
v 0.002555 -0.272928 -0.113264
v 0.002555 0.018815 -0.113264
v -0.173548 0.193940 0.113264
v -0.173548 0.193940 -0.113264
v 0.002555 0.193940 -0.113264
v 0.100706 0.042286 0.051575
v 0.100706 0.122029 -0.051575
v 0.100706 0.122029 0.051575
v -0.173548 -0.272928 0.113264
v -0.173548 0.018815 0.113264
v 0.002555 -0.272928 -0.037755
v 0.002555 0.018815 -0.037755
v 0.002555 0.018815 0.037755
v -0.173548 0.193940 0.037755
v -0.173548 0.193940 -0.037755
v 0.002555 0.193940 0.113264
v 0.037771 0.035906 -0.059828
v 0.037771 0.035906 0.059828
v 0.037771 0.128410 -0.059828
v 0.037771 0.128410 0.059828
v 0.100706 0.042286 -0.051575
v 0.002555 0.018815 0.113264
v -0.060284 0.193940 -0.113264
v -0.060284 0.193940 0.113264
v -0.060284 0.193940 -0.037755
v -0.060284 0.193940 0.037755
v 0.002555 -0.272928 0.037755
v -0.152046 0.248186 -0.042951
v -0.152046 0.248186 -0.128852
v -0.081786 0.248186 0.128852
v -0.152046 0.248186 0.128852
v -0.152046 0.248186 0.042951
v -0.081786 0.248186 -0.128852
v -0.081786 0.248186 -0.042951
v -0.081786 0.248186 0.042951
v -0.152046 0.275547 -0.055241
v -0.152046 0.275547 -0.116562
v -0.081786 0.275547 0.116562
v -0.152046 0.275547 0.116562
v -0.152046 0.275547 0.055241
v -0.081786 0.275547 -0.116562
v -0.081786 0.275547 -0.055241
v -0.081786 0.275547 0.055241
v -0.196244 -0.175680 0.128411
v -0.196244 -0.078433 -0.128411
v 0.002555 -0.078433 -0.128411
v 0.002555 -0.078433 -0.042804
v 0.002555 -0.175680 -0.042804
v 0.002555 -0.078433 0.042804
v 0.002555 -0.175680 0.042804
v -0.196244 -0.078433 0.128411
v -0.196244 -0.175680 -0.128411
v 0.002555 -0.078433 0.128411
v 0.002555 -0.175680 0.128411
v 0.002555 -0.175680 -0.128411
v 0.092951 -0.182633 -0.107866
v 0.092951 -0.265976 -0.107866
v 0.092951 -0.265976 -0.043153
v 0.092951 0.011863 0.043153
v 0.092951 0.011863 0.107866
v 0.092951 -0.182633 0.107866
v 0.092951 -0.265976 0.107866
v 0.092951 -0.265976 0.043153
v 0.092951 0.011863 -0.107866
v 0.092951 0.011863 -0.043153
v 0.092951 -0.182633 -0.043153
v 0.092951 -0.182633 0.043153
v 0.092951 -0.071480 -0.122291
v 0.092951 -0.071480 0.122291
v 0.092951 -0.071480 -0.048924
v 0.092951 -0.071480 0.048924
v 0.108955 -0.193421 -0.099489
v 0.108955 -0.255188 -0.099489
v 0.108955 -0.255188 -0.051530
v 0.108955 0.001075 0.051530
v 0.108955 0.001075 0.099489
v 0.108955 -0.193421 0.099489
v 0.108955 -0.255188 0.099489
v 0.108955 -0.255188 0.051530
v 0.108955 0.001075 -0.099489
v 0.108955 0.001075 -0.051530
v 0.108955 -0.193421 -0.051530
v 0.108955 -0.193421 0.051530
v 0.108955 -0.060692 -0.099489
v 0.108955 -0.060692 0.099489
v 0.108955 -0.060692 -0.051530
v 0.108955 -0.060692 0.051530
v 0.113695 0.054788 0.035403
v 0.113695 0.109527 0.035403
v 0.113695 0.109527 -0.035403
v 0.113695 0.054788 -0.035403
vt 0.8979 0.1129
vt 0.8979 0.2257
vt 0.8153 0.2178
vt 0.8149 0.1212
vt 0.1816 0.2250
vt 0.1830 0.3382
vt 0.0221 0.3387
vt 0.0000 0.2256
vt 0.5203 0.7738
vt 0.5203 0.8427
vt 0.4847 0.7939
vt 0.9026 0.8427
vt 0.9026 0.7738
vt 0.9602 0.8427
vt 0.7852 0.3377
vt 0.7852 0.5405
vt 0.7159 0.5405
vt 0.1830 0.5412
vt 0.1256 0.5413
vt 0.3799 0.3382
vt 0.5408 0.3387
vt 0.5408 0.5417
vt 0.4373 0.5413
vt 0.0583 1.0000
vt 0.0583 0.8928
vt 0.1165 0.9001
vt 0.1165 0.9926
vt 0.2080 0.6361
vt 0.4120 0.6361
vt 0.3943 0.6848
vt 0.2865 0.6848
vt 0.4120 0.8427
vt 0.2080 0.8427
vt 0.2865 0.7939
vt 0.3943 0.7939
vt 0.0000 1.0000
vt 0.0000 0.8928
vt 0.0583 0.9002
vt 0.0583 0.9927
vt 0.8979 0.3383
vt 0.8979 0.2292
vt 0.9560 0.2367
vt 0.9560 0.3308
vt 0.4847 0.6848
vt 0.4266 0.7864
vt 0.4266 0.6924
vt 0.3009 0.9367
vt 0.2080 0.9367
vt 0.2233 0.9220
vt 0.2871 0.9220
vt 0.5772 0.3377
vt 0.6466 0.5405
vt 0.5772 0.5405
vt 0.7987 0.7738
vt 0.7987 0.7050
vt 0.9026 0.7050
vt 0.5203 0.6361
vt 0.5203 0.7050
vt 0.3813 0.2250
vt 0.2969 0.3300
vt 0.2982 0.2330
vt 0.7201 0.8612
vt 0.7155 0.9737
vt 0.6461 0.9737
vt 0.6415 0.8612
vt 0.7991 0.2239
vt 0.5633 0.2239
vt 0.6418 0.6044
vt 0.5629 0.6044
vt 0.9602 0.6361
vt 0.9026 0.6361
vt 0.0000 0.8928
vt 0.0693 0.7353
vt 0.1387 0.7353
vt 0.2080 0.8928
vt 0.0000 0.7353
vt 0.3799 0.5412
vt 0.0221 0.5417
vt 0.5226 0.6040
vt 0.4584 0.6038
vt 0.2080 0.7353
vt 0.5629 0.2256
vt 0.4582 0.8792
vt 0.3795 0.8734
vt 0.3931 0.8427
vt 0.4493 0.8468
vt 0.6305 0.6361
vt 0.5742 0.6361
vt 0.8945 0.8427
vt 0.8945 0.9454
vt 0.8310 0.9256
vt 0.8310 0.8619
vt 0.4582 0.9434
vt 0.3891 0.9384
vt 0.1045 0.6038
vt 0.0403 0.6040
vt 0.7995 0.6044
vt 0.7207 0.6044
vt 0.3104 0.8477
vt 0.3795 0.8427
vt 0.3795 0.9069
vt 0.3009 0.9127
vt 0.8953 0.4509
vt 0.8953 0.5536
vt 0.8318 0.5344
vt 0.8318 0.4707
vt 0.9121 0.6176
vt 0.8558 0.6176
vt 0.8558 0.5536
vt 0.9121 0.5536
vt 0.7995 0.5536
vt 0.8558 0.5536
vt 0.8558 0.6176
vt 0.7995 0.6176
vt 0.7987 0.9246
vt 0.7987 0.8609
vt 0.5214 0.6361
vt 0.4573 0.6359
vt 0.1056 0.6359
vt 0.0415 0.6361
vt 0.3706 0.9393
vt 0.3145 0.9434
vt 0.7995 0.5354
vt 0.7995 0.4717
vt 0.7882 0.6361
vt 0.7319 0.6361
vt 0.5408 0.0005
vt 0.5629 0.1129
vt 0.3813 0.1123
vt 0.3799 0.0000
vt 0.7852 0.0000
vt 0.7991 0.1113
vt 0.5633 0.1113
vt 0.5772 0.0000
vt 0.7155 0.6361
vt 0.7201 0.7486
vt 0.6415 0.7486
vt 0.6461 0.6361
vt 0.2969 0.1046
vt 0.2969 0.0079
vt 0.7987 0.7486
vt 0.7987 0.8612
vt 0.1830 0.0000
vt 0.1816 0.1123
vt 0.0000 0.1129
vt 0.0221 0.0005
vt 0.8979 0.0000
vt 0.8979 0.1129
vt 0.8149 0.1046
vt 0.8153 0.0080
vt 0.5629 0.8612
vt 0.5629 0.7486
vt 0.2661 0.1046
vt 0.2661 0.0079
vt 0.2815 0.0206
vt 0.2815 0.0922
vt 0.8149 0.2342
vt 0.8147 0.3307
vt 0.7998 0.3182
vt 0.7995 0.2466
vt 0.9029 0.4210
vt 0.9623 0.4210
vt 0.9546 0.4362
vt 0.9105 0.4362
vt 0.2661 0.3300
vt 0.2647 0.2330
vt 0.2815 0.2461
vt 0.2815 0.3177
vt 0.8953 0.4509
vt 0.9739 0.4509
vt 0.9550 0.5336
vt 0.8956 0.5336
vt 0.0050 0.6529
vt 0.0644 0.6529
vt 0.4582 0.8427
vt 0.5368 0.8427
vt 0.5312 0.9251
vt 0.4638 0.9251
vt 0.8979 0.3383
vt 0.9672 0.3383
vt 0.8979 0.0000
vt 0.9765 0.0000
vt 0.9762 0.0827
vt 0.9168 0.0827
vt 0.8979 0.2257
vt 0.8979 0.3383
vt 0.1436 0.6529
vt 0.2030 0.6529
vt 0.8945 0.8427
vt 0.9731 0.8427
vt 0.9674 0.9251
vt 0.9001 0.9251
vt 0.8979 0.3383
vt 0.8979 0.4509
vt 0.8149 0.4424
vt 0.8147 0.3459
vt 0.8979 0.0979
vt 0.9672 0.0979
vt 0.9623 0.1806
vt 0.9029 0.1806
vt 0.1605 0.8928
vt 0.1605 0.9643
vt 0.1165 0.9643
vt 0.1165 0.8928
vt 0.9121 0.6251
vt 0.9121 0.5536
vt 0.9562 0.5536
vt 0.9562 0.6251
vt 0.1605 0.9643
vt 0.1605 0.8928
vt 0.2046 0.8928
vt 0.2046 0.9643
vt 1.0000 0.2292
vt 1.0000 0.3007
vt 0.9560 0.3007
vt 0.9560 0.2292
vt 0.7995 0.4300
vt 0.7998 0.3584
vt 0.1513 0.6361
vt 0.1953 0.6361
vt 0.9685 0.0979
vt 0.9245 0.0979
vt 0.9546 0.1958
vt 0.9105 0.1958
vt 0.9465 0.9418
vt 0.9025 0.9418
vt 0.7995 0.0918
vt 0.7998 0.0202
vt 0.9473 0.5488
vt 0.9033 0.5488
vt 0.7998 0.2055
vt 0.7995 0.1339
vt 0.2815 0.0922
vt 0.2815 0.0206
vt 0.5288 0.9418
vt 0.4848 0.9418
vt 0.2815 0.3177
vt 0.2815 0.2461
vt 0.0126 0.6361
vt 0.0567 0.6361
vt 0.2871 0.8574
vt 0.2233 0.8574
vt 0.2080 0.8427
vt 0.4120 0.7717
vt 0.4120 0.7071
vt 0.3009 0.8427
vn 0.0318 0.0279 -0.9991
vn 0.0000 0.1539 0.9881
vn 0.4366 -0.8997 0.0000
vn 0.0000 1.0000 0.0000
vn -1.0000 0.0000 0.0000
vn 0.0000 0.0000 1.0000
vn 0.0000 0.0000 -1.0000
vn 0.1300 0.0000 -0.9915
vn 0.8350 0.0000 0.5503
vn 0.8350 0.0000 -0.5503
vn 0.1300 0.0000 0.9915
vn 0.1009 0.9949 0.0000
vn 0.1009 -0.9949 0.0000
vn 0.7797 0.0000 -0.6262
vn 0.8809 0.4734 0.0000
vn 0.0628 0.1613 -0.9849
vn 1.0000 -0.0000 0.0000
vn -0.9738 0.2273 0.0000
vn -0.9296 0.3685 0.0000
vn 0.0000 -1.0000 0.0000
vn 0.0000 -0.2762 -0.9611
vn 0.0000 0.1539 -0.9881
vn 0.0000 0.0953 -0.9954
vn 0.9296 0.3685 0.0000
vn 0.0000 -0.2762 0.9611
vn 0.0000 0.0953 0.9954
vn 0.0000 0.4097 -0.9122
vn 0.0000 0.4097 0.9122
vn 0.0000 -0.1539 -0.9881
vn -0.9738 -0.2273 0.0000
vn 0.1416 -0.0827 -0.9865
vn 0.0000 -0.1539 0.9881
vn 0.0318 0.0279 0.9991
vn 0.4637 0.0000 0.8860
vn 0.3243 -0.0376 0.9452
vn 0.5589 0.8292 0.0000
vn 0.6960 0.0710 0.7145
vn 0.0767 0.9971 0.0000
vn 0.0767 -0.9971 0.0000
vn 0.0628 0.1613 0.9849
vn 0.1416 -0.0827 0.9865
vn 0.0635 -0.0597 0.9962
vn 0.0635 -0.0597 -0.9962
vn 0.3243 -0.0376 -0.9452
vn 0.5589 -0.8292 0.0000
vn 0.4637 0.0000 -0.8860
vn 0.6960 0.0710 -0.7145
vn 0.6935 0.7205 0.0000
vn 0.6935 -0.7205 0.0000
vn 0.7797 0.0000 0.6262
usemtl Material.026
s off
f 30/1/1 53/2/1 70/3/1 66/4/1
f 56/5/2 25/6/2 13/7/2 54/8/2
f 15/9/3 5/10/3 20/11/3
f 26/12/4 28/13/4 8/14/4
f 13/15/5 6/16/5 17/17/5
f 25/6/6 19/18/6 27/19/6
f 5/20/7 2/21/7 7/22/7 26/23/7
f 20/24/8 22/25/8 10/26/8 24/27/8
f 19/28/9 25/29/9 21/30/9 23/31/9
f 5/32/10 8/33/10 22/34/10 20/35/10
f 23/36/11 21/37/11 9/38/11 11/39/11
f 22/40/12 23/41/12 11/42/12 10/43/12
f 21/44/13 20/11/13 24/45/13 9/46/13
f 24/47/14 10/48/14 93/49/14 94/50/14
f 8/33/15 19/28/15 23/31/15 22/34/15
f 2/51/5 18/52/5 7/53/5
f 2/51/5 13/15/5 17/17/5 18/52/5
f 28/13/4 18/54/4 17/55/4 29/56/4
f 25/57/3 16/58/3 21/44/3
f 16/58/3 15/9/3 20/11/3 21/44/3
f 49/59/16 5/20/16 67/60/16 71/61/16
f 50/62/17 15/63/17 16/64/17 52/65/17
f 54/66/18 13/15/18 2/51/18 48/67/18
f 7/53/19 18/52/19 31/68/19 32/69/19
f 19/70/4 29/56/4 27/71/4
f 1/72/20 14/73/20 30/74/20 12/75/20
f 1/72/20 4/76/20 14/73/20
f 8/14/4 28/13/4 29/56/4 19/70/4
f 5/20/7 26/23/7 8/77/7
f 13/7/6 25/6/6 27/19/6 6/78/6
f 26/23/21 7/22/21 32/79/21 36/80/21
f 12/75/20 30/74/20 3/81/20
f 48/82/22 2/21/22 5/20/22 49/59/22
f 37/83/17 36/84/17 44/85/17 45/86/17
f 32/69/5 31/68/5 39/87/5 40/88/5
f 29/89/23 17/90/23 35/91/23 38/92/23
f 28/93/24 26/94/24 36/84/24 37/83/24
f 6/78/25 27/19/25 33/95/25 34/96/25
f 17/17/19 6/16/19 34/97/19 35/98/19
f 27/99/24 29/100/24 38/101/24 33/102/24
f 18/103/26 28/104/26 37/105/26 31/106/26
f 41/107/4 46/108/4 43/109/4 42/110/4
f 40/111/4 39/112/4 45/113/4 44/114/4
f 38/92/27 35/91/27 43/115/27 46/116/27
f 36/80/27 32/79/27 40/117/27 44/118/27
f 34/96/28 33/95/28 41/119/28 42/120/28
f 33/102/17 38/101/17 46/121/17 41/122/17
f 31/106/28 37/105/28 45/123/28 39/124/28
f 35/98/5 34/97/5 42/125/5 43/126/5
f 1/127/29 55/128/29 58/129/29 4/130/29
f 55/128/7 48/82/7 49/59/7 58/129/7
f 12/131/30 47/132/30 55/133/30 1/134/30
f 47/132/5 54/66/5 48/67/5 55/133/5
f 14/135/17 51/136/17 53/137/17 30/138/17
f 51/136/17 50/62/17 52/65/17 53/137/17
f 4/130/31 58/129/31 59/139/31 60/140/31
f 58/141/17 49/142/17 50/62/17 51/136/17
f 3/143/32 57/144/32 47/145/32 12/146/32
f 57/144/6 56/5/6 54/8/6 47/145/6
f 51/147/33 14/148/33 61/149/33 69/150/33
f 53/137/17 52/65/17 56/151/17 57/152/17
f 64/153/34 65/154/34 81/155/34 80/156/34
f 68/157/35 73/158/35 89/159/35 84/160/35
f 62/161/36 63/162/36 79/163/36 78/164/36
f 63/165/37 72/166/37 88/167/37 79/168/37
f 53/169/38 57/170/38 64/171/38 70/172/38
f 14/73/39 4/76/39 60/173/39 61/174/39
f 56/175/39 52/176/39 74/177/39 72/178/39
f 16/179/38 25/180/38 63/162/38 62/161/38
f 25/6/40 56/5/40 72/166/40 63/165/40
f 57/144/41 3/143/41 65/154/41 64/153/41
f 58/181/38 51/182/38 69/183/38 59/184/38
f 15/185/42 50/186/42 73/158/42 68/157/42
f 3/81/39 30/74/39 66/187/39 65/188/39
f 50/189/39 49/190/39 71/191/39 73/192/39
f 52/193/43 16/194/43 62/195/43 74/196/43
f 5/197/38 15/198/38 68/199/38 67/200/38
f 90/201/17 78/202/17 79/203/17 88/204/17
f 87/205/17 83/206/17 84/207/17 89/208/17
f 76/209/17 75/210/17 85/211/17 77/212/17
f 82/213/17 86/214/17 80/215/17 81/216/17
f 74/196/44 62/195/44 78/217/44 90/218/44
f 65/188/45 66/187/45 82/219/45 81/220/45
f 59/184/36 69/183/36 85/221/36 75/222/36
f 67/200/36 68/199/36 84/223/36 83/224/36
f 73/192/45 71/191/45 87/225/45 89/226/45
f 69/150/34 61/149/34 77/227/34 85/228/34
f 70/172/36 64/171/36 80/229/36 86/230/36
f 66/4/46 70/3/46 86/231/46 82/232/46
f 60/140/46 59/139/46 75/233/46 76/234/46
f 72/178/45 74/177/45 90/235/45 88/236/45
f 71/61/47 67/60/47 83/237/47 87/238/47
f 61/174/45 60/173/45 76/239/45 77/240/45
f 91/241/17 94/50/17 93/49/17 92/242/17
f 10/48/48 11/243/48 92/242/48 93/49/48
f 9/46/49 24/45/49 94/244/49 91/245/49
f 11/243/50 9/246/50 91/241/50 92/242/50
